<svg width="466" height="1174" viewBox="0 0 466 1174" fill="none" xmlns="http://www.w3.org/2000/svg">
<g clip-path="url(#clip0_37_8767)">
<g clip-path="url(#clip1_37_8767)">
<path d="M188.654 528.624C183.054 512.624 183.654 486.957 184.654 476.124C186.154 445.457 189.154 382.924 189.154 378.124C189.154 373.324 186.154 318.457 184.654 291.624C184.654 282.824 186.654 194.624 187.654 151.624L198.654 147.624L215.654 151.624C209.254 172.824 212.988 233.124 215.654 260.624C228.454 251.424 229.654 176.124 228.654 139.624L253.654 139.624L257.154 168.624C247.954 199.424 253.321 239.124 257.154 255.124C260.354 246.724 262.154 182.624 262.654 151.624L277.654 147.624L285.154 151.624L289.654 162.624L285.154 265.624C291.154 281.624 285.154 322.624 285.154 344.624L285.154 464.124L289.654 522.124C286.321 563.957 281.654 651.224 289.654 665.624C297.654 680.024 292.988 723.957 289.654 744.124C283.654 779.124 291.154 894.124 295.654 904.124C299.254 912.124 297.154 1020.46 295.654 1073.62C296.154 1080.12 271.655 1076.62 271.654 1073.62C271.654 1071.22 266.321 992.957 263.654 954.124C257.654 972.524 261.154 1032.46 263.654 1060.12L258.154 1073.62C257.354 1081.62 239.488 1078.96 230.654 1076.62C231.054 1071.82 227.154 995.957 225.154 958.624C223.554 946.624 221.154 950.624 220.154 954.124C213.354 982.524 217.321 1041.29 220.154 1067.12L206.654 1073.62L191.654 1067.12L188.154 941.624L188.154 897.624L184.654 732.624L184.654 665.624C188.321 626.624 194.254 544.624 188.654 528.624ZM259.154 741.124C253.654 779.457 246.654 863.324 262.654 892.124C265.154 847.291 267.954 754.324 259.154 741.124ZM256.154 537.124C251.821 576.124 246.454 657.124 259.654 669.124C261.988 631.957 264.554 553.524 256.154 537.124ZM220.154 767.624C215.321 808.624 208.554 893.424 220.154 904.624C225.988 899.624 235.454 874.724 226.654 815.124L220.154 767.624ZM211.154 545.124C210.154 584.457 209.354 665.524 214.154 675.124C213.821 678.791 214.555 685.024 220.154 680.624L227.154 668.624C227.988 620.124 227.754 522.424 220.154 519.624C216.988 518.124 210.754 521.124 211.154 545.124ZM220.154 372.624C206.154 419.424 208.988 461.457 212.154 476.624C216.154 481.024 221.154 474.791 223.154 471.124C231.954 461.924 224.821 401.624 220.154 372.624ZM214.154 307.124C214.654 303.624 194.654 326.124 206.654 343.124C208.988 332.291 213.754 309.924 214.154 307.124Z" fill="#1E1E1E"/>
<path d="M235 367L238.5 479.5L224 367L212 339L217.5 307C217.9 293.8 204 294.833 197 297L200.5 261.5C203.3 273.9 217.333 266.667 224 261.5L224 332.5L235 367Z" fill="#414040"/>
<path d="M241.5 681.5L241.5 655.5C241.5 667.5 227.833 680.5 221 685.5C217 693.5 206.667 688.833 202 685.5L205.5 706.5L211.5 720.5L226 729.5L236 780L236 738.5L236 716L236 700L241.5 681.5Z" fill="#414040"/>
<path d="M205.5 357C195.5 375.4 196.333 447 198 480.5L190 477L190 377.5L198 347L198 361.5L205.5 357Z" fill="#414040"/>
<path d="M284 857L280 895L273 844L273 761L280 745C280 757 282.667 824.667 284 857Z" fill="#414040"/>
<path d="M272.5 315.5L266 479C262 477.667 254.7 473.1 257.5 465.5C260.3 457.9 256.333 367.667 254 323.5L254 312.5C255.2 297.7 266.833 308.333 272.5 315.5Z" fill="#414040"/>
<path d="M201 778L201 895C197.8 895 193.333 879 191.5 871L189 729L191.5 709.5L201 737L216 737L208 753L201 778Z" fill="#414040"/>
</g>
</g>
<defs>
<clipPath id="clip0_37_8767">
<rect width="466" height="1174" fill="white"/>
</clipPath>
<clipPath id="clip1_37_8767">
<rect width="994" height="159" fill="white" transform="translate(161 1104) rotate(-90)"/>
</clipPath>
</defs>
</svg>
