<svg width="466" height="1174" viewBox="0 0 466 1174" fill="none" xmlns="http://www.w3.org/2000/svg">
<g clip-path="url(#clip0_37_8226)">
<g clip-path="url(#clip1_37_8226)">
<path d="M186.227 667.15C187.23 652.026 188.392 630.457 189.093 608.777L202.103 613.569L210.278 605.423C211.191 638.365 212.924 670.125 215.978 675.834C215.746 679.508 216.651 685.719 222.127 681.167L228.794 668.978C228.574 647.768 227.89 617.16 226.549 589.212L236.18 579.617L236.511 591.612L246.497 572.83L251.588 584.458C250.629 621.303 252.175 660.739 261.295 668.582C261.928 650.594 262.348 622.968 261.615 597.397L269.884 604.698L274.262 582.068L284.258 581.793L285.293 582.895C284.9 619.299 286.036 655.559 291.187 664.257C299.581 678.431 296.127 722.477 293.351 742.727C288.317 777.879 298.983 892.629 303.757 902.501C307.576 910.399 308.462 1018.75 308.427 1071.94C309.106 1078.42 284.52 1075.6 284.437 1072.6C284.37 1070.2 276.883 992.109 273.147 953.364C267.656 971.922 272.806 1031.74 276.068 1059.32L270.942 1072.97C270.362 1080.99 252.429 1078.82 243.535 1076.73C243.802 1071.92 237.813 996.187 234.785 958.923C232.855 946.972 230.567 951.036 229.663 954.563C223.649 983.139 229.233 1041.77 232.777 1067.52L219.461 1074.39L204.288 1068.31L197.331 942.949L196.119 898.966L188.073 734.125L186.227 667.15ZM186.451 530.092C180.412 514.253 180.305 488.579 181.006 477.722C181.66 447.026 182.936 384.434 182.804 379.636C182.671 374.837 178.161 320.074 175.922 293.292C175.679 284.496 175.248 196.274 175.063 153.263L185.949 148.961L203.053 152.491C197.239 173.86 202.633 234.034 206.056 261.45C218.598 251.901 217.722 176.596 215.717 140.138L240.707 139.449L245.005 168.341C236.657 199.383 243.116 238.92 247.389 254.809C250.356 246.324 250.389 182.198 250.035 151.196L264.919 146.785L272.526 150.576L277.328 161.448L275.667 264.533C282.106 280.362 277.238 321.511 277.844 343.503L281.137 462.958L287.233 520.812C286.485 535.198 285.727 554.94 285.395 575.238L280.484 571.893L269.36 585.705L263.862 585.856L260.974 581.331C259.888 560.7 257.813 543.403 254.159 536.729C253.44 545.364 252.727 556.047 252.198 567.578L249.748 563.737L241.347 567.47L236.001 573.119L230.503 573.271L225.973 578.152C224.22 547.001 221.56 521.533 217.691 520.228C214.484 518.816 208.336 521.986 209.397 545.966C209.425 559.158 209.606 577.038 210.023 595.337L205.729 599.964L205.522 592.466L201.731 600.074L197.026 592.701L194.234 600.28L189.362 599.607C190.166 568.456 189.823 538.938 186.451 530.092ZM262.779 740.569C258.338 779.039 253.651 863.067 270.439 891.415C271.703 846.53 271.94 753.521 262.779 740.569ZM224.524 768.133C220.823 809.251 216.395 894.205 228.299 905.081C233.993 899.923 242.77 874.771 232.331 815.436L224.524 768.133ZM213.64 373.283C200.935 420.451 204.926 462.391 208.509 477.464C212.629 481.752 217.455 475.384 219.353 471.663C227.896 462.224 219.104 402.144 213.64 373.283ZM205.838 307.974C206.241 304.461 186.869 327.504 199.333 344.167C201.367 333.273 205.515 310.784 205.838 307.974Z" fill="#1E1E1E"/>
<path d="M228.325 367.252L234.924 479.613L217.33 367.556L204.563 339.897L209.179 307.757C209.215 294.551 195.349 295.967 188.411 298.326L190.931 262.743C194.072 275.061 207.901 267.444 214.423 262.096L216.379 333.069L228.325 367.252Z" fill="#414040"/>
<path d="M243.489 681.454L242.772 655.464C243.103 667.459 229.8 680.831 223.107 686.017C219.329 694.124 208.871 689.744 204.114 686.541L208.191 707.436L214.575 721.266L229.317 729.863L240.705 780.068L239.562 738.584L238.942 716.092L238.501 700.098L243.489 681.454Z" fill="#414040"/>
<path d="M198.561 358.069C189.072 376.738 191.878 448.287 194.467 481.729L186.374 478.451L183.632 378.988L190.788 348.279L191.188 362.774L198.561 358.069Z" fill="#414040"/>
<path d="M290.809 855.716L287.857 893.812L279.455 843.024L277.168 760.056L283.724 743.869C284.055 755.864 288.585 823.432 290.809 855.716Z" fill="#414040"/>
<path d="M264.392 314.739L262.4 478.356C258.365 477.133 250.941 472.769 253.531 465.095C256.121 457.421 249.669 367.331 246.12 323.245L245.816 312.25C246.608 297.422 258.53 307.731 264.392 314.739Z" fill="#414040"/>
<path d="M205.663 779.033L208.887 895.989C205.688 896.077 200.782 880.206 198.729 872.26L192.318 730.382L194.279 710.821L204.533 738.049L219.528 737.635L211.972 753.85L205.663 779.033Z" fill="#414040"/>
</g>
</g>
<defs>
<clipPath id="clip0_37_8226">
<rect width="466" height="1174" fill="white"/>
</clipPath>
<clipPath id="clip1_37_8226">
<rect width="994" height="159" fill="white" transform="translate(161 1104) rotate(-90)"/>
</clipPath>
</defs>
</svg>
