<svg width="466" height="1174" viewBox="0 0 466 1174" fill="none" xmlns="http://www.w3.org/2000/svg">
<g clip-path="url(#clip0_37_8032)">
<g clip-path="url(#clip1_37_8032)">
<path d="M181.325 662.094C183.403 648.769 186.061 630.372 188.464 611.311L195.024 615.719L210.334 609.635C208.602 639.963 207.831 667.836 210.19 673.375C209.634 677.015 209.986 683.281 215.844 679.231L223.562 667.68C224.933 650.197 226.553 626.287 227.717 602.729L237.636 598.786L244.288 604.703L248.075 591.91L253.003 592.211C249.332 626.804 248.091 662.066 255.971 670.161C258.116 652.918 260.857 626.711 262.423 601.944L266.155 607.542L278.937 603.313L285.913 595.725L286.565 596.191C283.534 629.144 282.14 660.156 286.129 668.497C293.236 683.358 285.899 726.925 281.342 746.851C273.218 781.42 273.691 896.663 277.573 906.919C280.678 915.124 271.975 1023.13 267.236 1076.1C267.338 1082.62 243.098 1077.63 243.28 1074.64C243.427 1072.24 242.876 993.798 242.583 954.875C235.472 972.875 235.31 1032.91 236.118 1060.68L229.805 1073.82C228.519 1081.75 210.848 1078 202.174 1075.13C202.866 1070.37 203.6 994.404 203.88 957.018C203.015 944.943 200.376 948.789 199.164 952.222C190.645 980.154 191.02 1039.05 192.273 1065.01L178.401 1070.68L163.826 1063.27L167.986 937.793L170.669 893.875L177.238 728.969L181.325 662.094ZM193.672 525.593C189.058 509.281 191.223 483.699 192.881 472.947C196.249 442.428 203.057 380.195 203.35 375.403C203.642 370.612 203.994 315.665 204.133 288.79C204.67 280.006 212.045 192.092 215.666 149.233L226.889 145.912L243.614 150.941C235.933 171.711 235.982 232.127 236.966 259.738C250.304 251.336 256.094 176.249 257.321 139.756L282.275 141.281L284 170.44C272.939 200.622 275.874 240.575 278.724 256.779C282.431 248.59 288.137 184.719 290.526 153.807L305.742 150.73L312.984 155.18L316.805 166.434L306.032 268.967C311.045 285.304 302.556 325.861 301.214 347.82L293.926 467.098L294.881 525.264C293.314 536.335 291.459 550.62 289.711 565.901L284.748 565.598L271.814 572.321L267.169 574.542L263.657 570.868C263.783 555.809 262.945 543.72 260.528 538.193C259.279 545.399 257.905 554.057 256.577 563.46L254.457 561.242L246.064 559.227L239.984 560.358L233.496 559.961L229.081 566.314C229.66 540.134 228.965 519.982 225.662 518.531C222.593 516.84 216.188 519.455 215.124 543.434C214.006 556.342 212.633 573.767 211.445 591.687L208.781 595.52L207.151 589.41L202.659 589.135L202.29 570.578L194.042 582.597L191.771 582.775C194.498 556.611 195.903 533.481 193.672 525.593ZM251.081 741.997C243.254 779.923 231.152 863.207 245.366 892.929C250.596 848.332 259.06 755.709 251.081 741.997ZM210.538 766.069C203.213 806.698 191.287 890.927 202.183 902.814C208.31 898.179 219.278 873.903 214.129 813.877L210.538 766.069ZM234.627 371.804C217.799 417.663 218.064 459.791 220.3 475.123C224.024 479.758 229.395 473.842 231.615 470.304C240.959 461.658 237.517 401.035 234.627 371.804ZM232.633 306.06C233.346 302.597 212.011 323.836 222.952 341.536C225.941 330.865 232.063 308.831 232.633 306.06Z" fill="#1E1E1E"/>
<path d="M249.789 367.096L246.421 479.6L238.809 366.425L228.539 337.746L235.98 306.141C237.185 292.989 223.247 293.173 216.128 294.909L221.787 259.688C223.825 272.236 238.274 265.872 245.243 261.122L240.913 331.989L249.789 367.096Z" fill="#414040"/>
<path d="M237.096 681.407L238.682 655.455C237.95 667.433 223.516 679.575 216.39 684.149C211.91 691.89 201.88 686.602 197.426 682.991L199.639 704.165L204.774 718.505L218.698 728.372L225.599 779.388L228.13 737.965L229.502 715.507L230.478 699.537L237.096 681.407Z" fill="#414040"/>
<path d="M220.953 355.315C209.85 373.071 206.315 444.589 205.935 478.128L198.164 474.147L204.232 374.832L214.077 344.877L213.193 359.35L220.953 355.315Z" fill="#414040"/>
<path d="M268.814 859.172L262.504 896.858L258.627 845.526L263.689 762.68L271.652 747.137C270.92 759.115 269.455 826.818 268.814 859.172Z" fill="#414040"/>
<path d="M290.359 317.979L273.9 480.778C269.989 479.203 262.981 474.2 266.239 466.785C269.498 459.37 271.041 369.062 271.406 324.836L272.077 313.856C274.177 299.157 285.14 310.48 290.359 317.979Z" fill="#414040"/>
<path d="M190.786 775.258L183.651 892.04C180.457 891.845 176.974 875.602 175.632 867.505L181.797 725.617L185.482 706.306L193.287 734.334L208.259 735.249L199.298 750.731L190.786 775.258Z" fill="#414040"/>
</g>
</g>
<defs>
<clipPath id="clip0_37_8032">
<rect width="466" height="1174" fill="white"/>
</clipPath>
<clipPath id="clip1_37_8032">
<rect width="994" height="159" fill="white" transform="translate(161 1104) rotate(-90)"/>
</clipPath>
</defs>
</svg>
