<svg width="466" height="1174" viewBox="0 0 466 1174" fill="none" xmlns="http://www.w3.org/2000/svg">
<g clip-path="url(#clip0_37_8483)">
<g clip-path="url(#clip1_37_8483)">
<path d="M190.687 527.345C185.489 511.21 186.73 485.567 188.001 474.762C190.267 444.142 194.829 381.703 194.949 376.905C195.069 372.106 193.441 317.182 192.612 290.319C192.832 281.522 197.036 193.4 199.111 150.438L210.207 146.714L227.102 151.138C220.174 172.171 222.399 232.546 224.378 260.104C237.404 251.227 240.485 175.98 240.398 139.467L265.39 140.091L268.164 169.17C258.197 199.73 262.57 239.552 266.002 255.643C269.411 247.325 272.813 183.291 274.087 152.313L289.183 148.689L296.58 152.875L300.804 163.984L293.731 266.839C299.329 282.984 292.306 323.822 291.756 345.815L288.769 465.277L291.818 523.372C287.44 565.109 280.594 652.231 288.231 666.827C295.869 681.422 290.106 725.225 286.269 745.302C279.396 780.142 284.02 895.293 288.268 905.402C291.667 913.49 286.86 1021.74 284.032 1074.85C284.369 1081.36 259.964 1077.25 260.039 1074.25C260.099 1071.85 256.724 993.475 255.029 954.587C248.571 972.831 250.571 1032.83 252.379 1060.55L246.543 1073.91C245.544 1081.89 227.749 1078.78 218.977 1076.22C219.497 1071.44 217.494 995.495 216.428 958.123C215.129 946.087 212.629 950.026 211.542 953.5C204.034 981.721 206.531 1040.57 208.718 1066.46L195.059 1072.62L180.227 1065.75L179.865 940.204L180.964 896.217L181.59 731.182L183.264 664.202C185.12 648.648 187.508 626.229 189.375 603.891L202.095 605.031L210.654 598.881C209.707 633.525 209.63 668.283 212.518 674.437C212.093 678.094 212.67 684.343 218.378 680.085L225.676 668.264C226.59 646.615 227.533 615.145 227.63 586.683L237.746 579.414L240.783 577.989L251.405 573.253L253.174 581.413C250.031 619.151 249.17 660.989 258.153 669.576C259.796 650.892 261.759 621.745 262.283 595.292L263.838 596.071L275.647 583.862L285.644 584.112L286.681 582.638L285.731 580.614L278.196 581.926L271.148 583.75L262.901 593.547L262.331 592.543C262.732 567.587 261.778 545.481 257.954 537.53C256.487 548.273 254.863 562.222 253.551 577.042L251.405 573.253L249.968 570.717L245.406 573.103L240.808 576.99L232.71 580.788L227.636 584.341C227.695 550.083 226.475 520.753 222.402 519.135C219.274 517.557 212.968 520.4 212.768 544.403C212.075 558.143 211.279 576.986 210.731 596.098L208.793 597.196L206.743 599.145L203.195 601.057L194.122 603.831L189.39 603.713C192.184 570.25 193.801 537.011 190.687 527.345ZM255.854 741.541C249.397 779.725 240.303 863.39 255.579 892.581C259.198 847.824 264.321 754.957 255.854 741.541ZM216.204 767.058C210.347 807.924 201.463 892.529 212.779 904.015C218.736 899.162 228.822 874.507 221.514 814.706L216.204 767.058ZM226.077 372.181C210.911 418.617 212.693 460.708 215.48 475.949C219.368 480.447 224.523 474.341 226.614 470.726C235.641 461.748 230.017 401.289 226.077 372.181ZM221.716 306.552C222.303 303.065 201.747 325.059 213.318 342.353C215.922 331.582 221.246 309.341 221.716 306.552Z" fill="#1E1E1E"/>
<path d="M238.742 366.939L240.505 479.48L227.743 366.769L216.177 338.587L222.17 306.676C222.774 293.484 208.86 294.302 201.827 296.361L205.875 260.919C208.483 273.361 222.626 266.345 229.372 261.282L228.276 332.273L238.742 366.939Z" fill="#414040"/>
<path d="M240.385 681.502L240.787 655.505C240.602 667.504 226.736 680.291 219.826 685.185C215.703 693.122 205.443 688.297 200.828 684.892L204.004 705.943L209.787 720.034L224.146 729.257L233.365 779.905L234.006 738.41L234.353 715.913L234.6 699.915L240.385 681.502Z" fill="#414040"/>
<path d="M209.4 356.485C199.117 374.728 198.845 446.332 199.994 479.854L192.049 476.231L193.585 376.743L202.055 346.37L201.831 360.868L209.4 356.485Z" fill="#414040"/>
<path d="M280.171 857.637L275.584 895.571L269.373 844.469L270.654 761.479L277.9 745.589C277.715 757.587 279.337 825.287 280.171 857.637Z" fill="#414040"/>
<path d="M277.033 316.024L268.009 479.404C264.03 478.009 256.802 473.331 259.719 465.775C262.636 458.219 260.062 367.935 258.411 323.738L258.581 312.739C260.01 297.959 271.477 308.771 277.033 316.024Z" fill="#414040"/>
<path d="M198.4 777.365L196.594 894.351C193.394 894.302 189.175 878.235 187.465 870.207L187.158 728.186L189.959 708.727L199.033 736.37L214.031 736.602L205.785 752.476L198.4 777.365Z" fill="#414040"/>
</g>
</g>
<defs>
<clipPath id="clip0_37_8483">
<rect width="466" height="1174" fill="white"/>
</clipPath>
<clipPath id="clip1_37_8483">
<rect width="994" height="159" fill="white" transform="translate(161 1104) rotate(-90)"/>
</clipPath>
</defs>
</svg>
